{
	"patcher" : 	{
		"fileversion" : 1,
		"appversion" : 		{
			"major" : 7,
			"minor" : 3,
			"revision" : 5,
			"architecture" : "x86",
			"modernui" : 1
		}
,
		"rect" : [ 104.0, 97.0, 1180.0, 640.0 ],
		"bgcolor" : [ 0.239216, 0.254902, 0.278431, 1.0 ],
		"editing_bgcolor" : [ 0.32549, 0.345098, 0.372549, 1.0 ],
		"bglocked" : 0,
		"openinpresentation" : 1,
		"default_fontsize" : 11.0,
		"default_fontface" : 0,
		"default_fontname" : "Lato",
		"gridonopen" : 2,
		"gridsize" : [ 15.0, 15.0 ],
		"gridsnaponopen" : 2,
		"objectsnaponopen" : 1,
		"statusbarvisible" : 2,
		"toolbarvisible" : 0,
		"lefttoolbarpinned" : 0,
		"toptoolbarpinned" : 0,
		"righttoolbarpinned" : 0,
		"bottomtoolbarpinned" : 0,
		"toolbars_unpinned_last_save" : 0,
		"tallnewobj" : 0,
		"boxanimatetime" : 200,
		"enablehscroll" : 1,
		"enablevscroll" : 1,
		"devicewidth" : 0.0,
		"description" : "",
		"digest" : "",
		"tags" : "",
		"style" : "",
		"subpatcher_template" : "default",
		"boxes" : [ 			{
				"box" : 				{
					"color" : [ 1.0, 1.0, 0.0, 1.0 ],
					"id" : "obj-20",
					"maxclass" : "newobj",
					"numinlets" : 0,
					"numoutlets" : 1,
					"outlettype" : [ "" ],
					"patching_rect" : [ 510.0, 45.0, 32.0, 22.0 ],
					"style" : "",
					"text" : "r ___"
				}

			}
, 			{
				"box" : 				{
					"id" : "obj-60",
					"maxclass" : "message",
					"numinlets" : 2,
					"numoutlets" : 1,
					"outlettype" : [ "" ],
					"patching_rect" : [ 465.0, 165.0, 32.0, 22.0 ],
					"style" : "",
					"text" : "7 $1"
				}

			}
, 			{
				"box" : 				{
					"id" : "obj-57",
					"maxclass" : "newobj",
					"numinlets" : 2,
					"numoutlets" : 1,
					"outlettype" : [ "int" ],
					"patching_rect" : [ 465.0, 135.0, 29.5, 22.0 ],
					"style" : "",
					"text" : "* 1"
				}

			}
, 			{
				"box" : 				{
					"id" : "obj-56",
					"maxclass" : "newobj",
					"numinlets" : 2,
					"numoutlets" : 2,
					"outlettype" : [ "", "" ],
					"patching_rect" : [ 465.0, 105.0, 46.0, 22.0 ],
					"style" : "",
					"text" : "route 7"
				}

			}
, 			{
				"box" : 				{
					"id" : "obj-54",
					"maxclass" : "newobj",
					"numinlets" : 2,
					"numoutlets" : 2,
					"outlettype" : [ "bang", "" ],
					"patching_rect" : [ 465.0, 360.0, 33.0, 22.0 ],
					"style" : "",
					"text" : "sel 0"
				}

			}
, 			{
				"box" : 				{
					"id" : "obj-51",
					"maxclass" : "newobj",
					"numinlets" : 1,
					"numoutlets" : 2,
					"outlettype" : [ "int", "int" ],
					"patching_rect" : [ 465.0, 225.0, 64.0, 22.0 ],
					"style" : "",
					"text" : "unpack 0 0"
				}

			}
, 			{
				"box" : 				{
					"id" : "obj-50",
					"maxclass" : "newobj",
					"numinlets" : 2,
					"numoutlets" : 1,
					"outlettype" : [ "int" ],
					"patching_rect" : [ 465.0, 328.0, 45.0, 22.0 ],
					"style" : "",
					"text" : "== 0"
				}

			}
, 			{
				"box" : 				{
					"color" : [ 0.0, 1.0, 0.0, 1.0 ],
					"id" : "obj-49",
					"maxclass" : "newobj",
					"numinlets" : 1,
					"numoutlets" : 1,
					"outlettype" : [ "" ],
					"patcher" : 					{
						"fileversion" : 1,
						"appversion" : 						{
							"major" : 7,
							"minor" : 3,
							"revision" : 5,
							"architecture" : "x86",
							"modernui" : 1
						}
,
						"rect" : [ 880.0, 258.0, 640.0, 480.0 ],
						"bgcolor" : [ 0.239216, 0.254902, 0.278431, 1.0 ],
						"editing_bgcolor" : [ 0.32549, 0.345098, 0.372549, 1.0 ],
						"bglocked" : 0,
						"openinpresentation" : 0,
						"default_fontsize" : 11.0,
						"default_fontface" : 0,
						"default_fontname" : "Lato",
						"gridonopen" : 2,
						"gridsize" : [ 15.0, 15.0 ],
						"gridsnaponopen" : 2,
						"objectsnaponopen" : 1,
						"statusbarvisible" : 2,
						"toolbarvisible" : 1,
						"lefttoolbarpinned" : 0,
						"toptoolbarpinned" : 0,
						"righttoolbarpinned" : 0,
						"bottomtoolbarpinned" : 0,
						"toolbars_unpinned_last_save" : 0,
						"tallnewobj" : 0,
						"boxanimatetime" : 200,
						"enablehscroll" : 1,
						"enablevscroll" : 1,
						"devicewidth" : 0.0,
						"description" : "",
						"digest" : "",
						"tags" : "",
						"style" : "",
						"subpatcher_template" : "default",
						"boxes" : [ 							{
								"box" : 								{
									"fontname" : "Lato",
									"fontsize" : 11.0,
									"id" : "obj-22",
									"linecount" : 4,
									"maxclass" : "message",
									"numinlets" : 2,
									"numoutlets" : 1,
									"outlettype" : [ "" ],
									"patching_rect" : [ 30.0, 105.0, 42.0, 61.0 ],
									"style" : "",
									"text" : "123 0, 121 0, 10 64, 7 127"
								}

							}
, 							{
								"box" : 								{
									"comment" : "",
									"id" : "obj-6",
									"index" : 1,
									"maxclass" : "outlet",
									"numinlets" : 1,
									"numoutlets" : 0,
									"patching_rect" : [ 75.0, 165.0, 25.0, 25.0 ],
									"style" : ""
								}

							}
, 							{
								"box" : 								{
									"comment" : "",
									"id" : "obj-5",
									"index" : 1,
									"maxclass" : "inlet",
									"numinlets" : 0,
									"numoutlets" : 1,
									"outlettype" : [ "" ],
									"patching_rect" : [ 30.0, 30.0, 25.0, 25.0 ],
									"style" : ""
								}

							}
, 							{
								"box" : 								{
									"id" : "obj-4",
									"maxclass" : "message",
									"numinlets" : 2,
									"numoutlets" : 1,
									"outlettype" : [ "" ],
									"patching_rect" : [ 75.0, 135.0, 38.0, 22.0 ],
									"style" : "",
									"text" : "$1 -1"
								}

							}
, 							{
								"box" : 								{
									"fontname" : "Lato",
									"fontsize" : 11.0,
									"id" : "obj-2",
									"maxclass" : "newobj",
									"numinlets" : 2,
									"numoutlets" : 1,
									"outlettype" : [ "int" ],
									"patching_rect" : [ 75.0, 105.0, 29.5, 22.0 ],
									"style" : "",
									"text" : "- 1"
								}

							}
, 							{
								"box" : 								{
									"fontname" : "Lato",
									"fontsize" : 11.0,
									"id" : "obj-1",
									"maxclass" : "newobj",
									"numinlets" : 2,
									"numoutlets" : 3,
									"outlettype" : [ "bang", "bang", "int" ],
									"patching_rect" : [ 30.0, 75.0, 64.0, 22.0 ],
									"style" : "",
									"text" : "uzi 128"
								}

							}
 ],
						"lines" : [ 							{
								"patchline" : 								{
									"destination" : [ "obj-2", 0 ],
									"source" : [ "obj-1", 2 ]
								}

							}
, 							{
								"patchline" : 								{
									"destination" : [ "obj-22", 0 ],
									"source" : [ "obj-1", 1 ]
								}

							}
, 							{
								"patchline" : 								{
									"destination" : [ "obj-4", 0 ],
									"source" : [ "obj-2", 0 ]
								}

							}
, 							{
								"patchline" : 								{
									"destination" : [ "obj-6", 0 ],
									"source" : [ "obj-22", 0 ]
								}

							}
, 							{
								"patchline" : 								{
									"destination" : [ "obj-6", 0 ],
									"source" : [ "obj-4", 0 ]
								}

							}
, 							{
								"patchline" : 								{
									"destination" : [ "obj-1", 0 ],
									"source" : [ "obj-5", 0 ]
								}

							}
 ],
						"accentcolor" : [ 0.490196, 0.498039, 0.517647, 1.0 ]
					}
,
					"patching_rect" : [ 521.0, 300.0, 44.0, 22.0 ],
					"saved_object_attributes" : 					{
						"accentcolor" : [ 0.490196, 0.498039, 0.517647, 1.0 ],
						"description" : "",
						"digest" : "",
						"fontname" : "Lato",
						"fontsize" : 11.0,
						"globalpatchername" : "",
						"style" : "",
						"tags" : ""
					}
,
					"style" : "",
					"text" : "p reset"
				}

			}
, 			{
				"box" : 				{
					"id" : "obj-16",
					"maxclass" : "newobj",
					"numinlets" : 2,
					"numoutlets" : 2,
					"outlettype" : [ "", "" ],
					"patching_rect" : [ 465.0, 390.0, 47.0, 22.0 ],
					"style" : "",
					"text" : "zl reg"
				}

			}
, 			{
				"box" : 				{
					"id" : "obj-11",
					"maxclass" : "newobj",
					"numinlets" : 2,
					"numoutlets" : 3,
					"outlettype" : [ "int", "int", "bang" ],
					"patching_rect" : [ 465.0, 300.0, 47.0, 22.0 ],
					"save" : [ "#N", "funbuff", 0, ";" ],
					"style" : "",
					"text" : "funbuff"
				}

			}
, 			{
				"box" : 				{
					"id" : "obj-12",
					"maxclass" : "newobj",
					"numinlets" : 2,
					"numoutlets" : 1,
					"outlettype" : [ "int" ],
					"patching_rect" : [ 570.0, 255.0, 29.5, 22.0 ],
					"style" : "",
					"text" : "- 1"
				}

			}
, 			{
				"box" : 				{
					"bgcolor" : [ 0.501961, 0.25098, 0.0, 0.5 ],
					"bgoncolor" : [ 1.0, 0.0, 0.0, 0.5 ],
					"id" : "obj-33",
					"maxclass" : "textbutton",
					"numinlets" : 1,
					"numoutlets" : 3,
					"outlettype" : [ "", "", "int" ],
					"parameter_enable" : 0,
					"patching_rect" : [ 990.0, 420.0, 45.0, 50.0 ],
					"presentation" : 1,
					"presentation_rect" : [ 255.0, 0.0, 45.0, 20.0 ],
					"style" : "",
					"text" : "Reset",
					"textcolor" : [ 1.0, 1.0, 1.0, 1.0 ],
					"texton" : "",
					"textoncolor" : [ 1.0, 1.0, 1.0, 1.0 ],
					"textovercolor" : [ 1.0, 1.0, 0.0, 1.0 ],
					"usebgoncolor" : 1,
					"usetextovercolor" : 1,
					"varname" : "Reset"
				}

			}
, 			{
				"box" : 				{
					"id" : "obj-22",
					"linecount" : 4,
					"maxclass" : "message",
					"numinlets" : 2,
					"numoutlets" : 1,
					"outlettype" : [ "" ],
					"patching_rect" : [ 990.0, 501.0, 45.0, 61.0 ],
					"style" : "",
					"text" : "123 0, 121 0, 10 64, 7 127"
				}

			}
, 			{
				"box" : 				{
					"id" : "obj-41",
					"maxclass" : "message",
					"numinlets" : 2,
					"numoutlets" : 1,
					"outlettype" : [ "" ],
					"patching_rect" : [ 885.0, 300.0, 41.0, 22.0 ],
					"style" : "",
					"text" : "set $1"
				}

			}
, 			{
				"box" : 				{
					"id" : "obj-35",
					"maxclass" : "newobj",
					"numinlets" : 1,
					"numoutlets" : 2,
					"outlettype" : [ "int", "int" ],
					"patching_rect" : [ 885.0, 255.0, 75.0, 22.0 ],
					"style" : "",
					"text" : "t i i"
				}

			}
, 			{
				"box" : 				{
					"id" : "obj-38",
					"maxclass" : "newobj",
					"numinlets" : 1,
					"numoutlets" : 3,
					"outlettype" : [ "", "int", "int" ],
					"patching_rect" : [ 885.0, 225.0, 45.0, 22.0 ],
					"style" : "",
					"text" : "change"
				}

			}
, 			{
				"box" : 				{
					"id" : "obj-40",
					"maxclass" : "newobj",
					"numinlets" : 2,
					"numoutlets" : 1,
					"outlettype" : [ "int" ],
					"patching_rect" : [ 885.0, 195.0, 29.5, 22.0 ],
					"style" : "",
					"text" : "i"
				}

			}
, 			{
				"box" : 				{
					"id" : "obj-34",
					"maxclass" : "message",
					"numinlets" : 2,
					"numoutlets" : 1,
					"outlettype" : [ "" ],
					"patching_rect" : [ 780.0, 300.0, 41.0, 22.0 ],
					"style" : "",
					"text" : "set $1"
				}

			}
, 			{
				"box" : 				{
					"id" : "obj-31",
					"maxclass" : "newobj",
					"numinlets" : 1,
					"numoutlets" : 2,
					"outlettype" : [ "int", "int" ],
					"patching_rect" : [ 780.0, 255.0, 75.0, 22.0 ],
					"style" : "",
					"text" : "t i i"
				}

			}
, 			{
				"box" : 				{
					"id" : "obj-30",
					"maxclass" : "message",
					"numinlets" : 2,
					"numoutlets" : 1,
					"outlettype" : [ "" ],
					"patching_rect" : [ 570.0, 328.0, 172.0, 22.0 ],
					"style" : "",
					"text" : "set $1, clearchecks, checkitem $1"
				}

			}
, 			{
				"box" : 				{
					"id" : "obj-26",
					"maxclass" : "newobj",
					"numinlets" : 1,
					"numoutlets" : 2,
					"outlettype" : [ "int", "int" ],
					"patching_rect" : [ 570.0, 300.0, 75.0, 22.0 ],
					"style" : "",
					"text" : "t i i"
				}

			}
, 			{
				"box" : 				{
					"id" : "obj-25",
					"maxclass" : "message",
					"numinlets" : 2,
					"numoutlets" : 1,
					"outlettype" : [ "" ],
					"patching_rect" : [ 510.0, 448.0, 41.0, 22.0 ],
					"style" : "",
					"text" : "set $1"
				}

			}
, 			{
				"box" : 				{
					"id" : "obj-23",
					"maxclass" : "message",
					"numinlets" : 2,
					"numoutlets" : 1,
					"outlettype" : [ "" ],
					"patching_rect" : [ 465.0, 448.0, 41.0, 22.0 ],
					"style" : "",
					"text" : "set $1"
				}

			}
, 			{
				"box" : 				{
					"id" : "obj-21",
					"maxclass" : "newobj",
					"numinlets" : 1,
					"numoutlets" : 3,
					"outlettype" : [ "", "", "" ],
					"patching_rect" : [ 465.0, 195.0, 75.0, 22.0 ],
					"style" : "",
					"text" : "t l l l"
				}

			}
, 			{
				"box" : 				{
					"id" : "obj-19",
					"maxclass" : "newobj",
					"numinlets" : 1,
					"numoutlets" : 2,
					"outlettype" : [ "", "" ],
					"patching_rect" : [ 255.0, 195.0, 75.0, 22.0 ],
					"style" : "",
					"text" : "t l l"
				}

			}
, 			{
				"box" : 				{
					"id" : "obj-18",
					"maxclass" : "message",
					"numinlets" : 2,
					"numoutlets" : 1,
					"outlettype" : [ "" ],
					"patching_rect" : [ 255.0, 225.0, 56.0, 22.0 ],
					"style" : "",
					"text" : "set $1 $2"
				}

			}
, 			{
				"box" : 				{
					"id" : "obj-2",
					"maxclass" : "newobj",
					"numinlets" : 2,
					"numoutlets" : 1,
					"outlettype" : [ "int" ],
					"patching_rect" : [ 570.0, 195.0, 29.5, 22.0 ],
					"style" : "",
					"text" : "i"
				}

			}
, 			{
				"box" : 				{
					"id" : "obj-47",
					"maxclass" : "message",
					"numinlets" : 2,
					"numoutlets" : 1,
					"outlettype" : [ "" ],
					"patching_rect" : [ 465.0, 600.0, 39.0, 22.0 ],
					"style" : "",
					"text" : "$2 $1"
				}

			}
, 			{
				"box" : 				{
					"id" : "obj-43",
					"maxclass" : "newobj",
					"numinlets" : 2,
					"numoutlets" : 1,
					"outlettype" : [ "" ],
					"patching_rect" : [ 465.0, 570.0, 64.0, 22.0 ],
					"style" : "",
					"text" : "pack 0 0"
				}

			}
, 			{
				"box" : 				{
					"id" : "obj-14",
					"maxclass" : "newobj",
					"numinlets" : 2,
					"numoutlets" : 1,
					"outlettype" : [ "" ],
					"patching_rect" : [ 255.0, 300.0, 51.0, 22.0 ],
					"style" : "",
					"text" : "pack 0 0"
				}

			}
, 			{
				"box" : 				{
					"blackkeycolor" : [ 0.0, 0.0, 0.0, 1.0 ],
					"id" : "obj-7",
					"maxclass" : "kslider",
					"mode" : 1,
					"numinlets" : 2,
					"numoutlets" : 2,
					"offset" : 24,
					"outlettype" : [ "int", "int" ],
					"parameter_enable" : 0,
					"patching_rect" : [ 255.0, 255.0, 301.0, 34.0 ],
					"presentation" : 1,
					"presentation_rect" : [ 0.0, 70.0, 301.0, 34.0 ],
					"range" : 73,
					"selectioncolor" : [ 0.94902, 0.376471, 0.0, 1.0 ],
					"style" : "",
					"whitekeycolor" : [ 0.69109, 0.696563, 0.715473, 1.0 ]
				}

			}
, 			{
				"box" : 				{
					"comment" : "midiout [Out1]",
					"id" : "obj-13",
					"index" : 0,
					"maxclass" : "outlet",
					"numinlets" : 1,
					"numoutlets" : 0,
					"patching_rect" : [ 15.0, 690.0, 25.0, 25.0 ],
					"style" : ""
				}

			}
, 			{
				"box" : 				{
					"id" : "obj-65",
					"maxclass" : "newobj",
					"numinlets" : 2,
					"numoutlets" : 1,
					"outlettype" : [ "" ],
					"patching_rect" : [ 15.0, 660.0, 31.0, 22.0 ],
					"style" : "",
					"text" : "gate"
				}

			}
, 			{
				"box" : 				{
					"id" : "obj-5",
					"maxclass" : "newobj",
					"numinlets" : 7,
					"numoutlets" : 2,
					"outlettype" : [ "int", "" ],
					"patching_rect" : [ 255.0, 630.0, 649.0, 22.0 ],
					"style" : "",
					"text" : "midiformat"
				}

			}
, 			{
				"box" : 				{
					"id" : "obj-52",
					"maxclass" : "newobj",
					"numinlets" : 1,
					"numoutlets" : 3,
					"outlettype" : [ "", "int", "int" ],
					"patching_rect" : [ 780.0, 225.0, 45.0, 22.0 ],
					"style" : "",
					"text" : "change"
				}

			}
, 			{
				"box" : 				{
					"id" : "obj-53",
					"maxclass" : "newobj",
					"numinlets" : 2,
					"numoutlets" : 1,
					"outlettype" : [ "int" ],
					"patching_rect" : [ 780.0, 195.0, 29.5, 22.0 ],
					"style" : "",
					"text" : "i"
				}

			}
, 			{
				"box" : 				{
					"fontface" : 0,
					"fontname" : "Lato",
					"id" : "obj-55",
					"maxclass" : "live.dial",
					"numinlets" : 1,
					"numoutlets" : 2,
					"outlettype" : [ "", "float" ],
					"parameter_enable" : 1,
					"patching_rect" : [ 780.0, 330.0, 45.0, 49.0 ],
					"presentation" : 1,
					"presentation_rect" : [ 255.0, 20.0, 45.0, 49.0 ],
					"saved_attribute_attributes" : 					{
						"valueof" : 						{
							"parameter_longname" : "Bend",
							"parameter_shortname" : "Bend",
							"parameter_type" : 1,
							"parameter_initial_enable" : 1,
							"parameter_initial" : [ 64 ],
							"parameter_unitstyle" : 0
						}

					}
,
					"textcolor" : [ 1.0, 1.0, 1.0, 1.0 ],
					"varname" : "Bend"
				}

			}
, 			{
				"box" : 				{
					"fontface" : 0,
					"fontname" : "Lato",
					"id" : "obj-48",
					"maxclass" : "live.dial",
					"numinlets" : 1,
					"numoutlets" : 2,
					"outlettype" : [ "", "float" ],
					"parameter_enable" : 1,
					"patching_rect" : [ 510.0, 510.0, 45.0, 49.0 ],
					"presentation" : 1,
					"presentation_rect" : [ 210.0, 20.0, 45.0, 49.0 ],
					"saved_attribute_attributes" : 					{
						"valueof" : 						{
							"parameter_longname" : "Control",
							"parameter_shortname" : "Control",
							"parameter_type" : 1,
							"parameter_initial_enable" : 1,
							"parameter_initial" : [ 0 ],
							"parameter_unitstyle" : 0
						}

					}
,
					"textcolor" : [ 1.0, 1.0, 1.0, 1.0 ],
					"varname" : "ContollerVal"
				}

			}
, 			{
				"box" : 				{
					"id" : "obj-24",
					"maxclass" : "newobj",
					"numinlets" : 1,
					"numoutlets" : 3,
					"outlettype" : [ "", "int", "int" ],
					"patching_rect" : [ 570.0, 225.0, 45.0, 22.0 ],
					"style" : "",
					"text" : "change"
				}

			}
, 			{
				"box" : 				{
					"id" : "obj-15",
					"maxclass" : "newobj",
					"numinlets" : 1,
					"numoutlets" : 2,
					"outlettype" : [ "int", "int" ],
					"patching_rect" : [ 465.0, 420.0, 64.0, 22.0 ],
					"style" : "",
					"text" : "unpack 0 0"
				}

			}
, 			{
				"box" : 				{
					"fontname" : "Lato",
					"fontsize" : 11.0,
					"id" : "obj-29",
					"linecount" : 2,
					"maxclass" : "message",
					"numinlets" : 2,
					"numoutlets" : 1,
					"outlettype" : [ "" ],
					"patching_rect" : [ 675.0, 360.0, 75.0, 35.0 ],
					"style" : "",
					"text" : "clearchecks, checkitem $1"
				}

			}
, 			{
				"box" : 				{
					"allowdrag" : 0,
					"bgcolor" : [ 0.0, 0.0, 0.0, 0.501961 ],
					"bgfillcolor_angle" : 270.0,
					"bgfillcolor_color" : [ 0.0, 0.0, 0.0, 0.501961 ],
					"bgfillcolor_color1" : [ 0.376471, 0.384314, 0.4, 1.0 ],
					"bgfillcolor_color2" : [ 0.290196, 0.309804, 0.301961, 1.0 ],
					"bgfillcolor_proportion" : 0.39,
					"bgfillcolor_type" : "color",
					"fontsize" : 10.0,
					"hint" : "Selected Instrument",
					"id" : "obj-28",
					"items" : [ 1, "Acoustic", "Grand", "Piano", ",", 2, "Bright", "Acoustic", "Piano", ",", 3, "Electric", "Grand", "Piano", ",", 4, "Honky-tonk", "Piano", ",", 5, "Electric", "Piano", 1, ",", 6, "Electric", "Piano", 2, ",", 7, "Harpsichord", ",", 8, "Clavi", ",", 9, "Celesta", ",", 10, "Glockenspiel", ",", 11, "Music", "Box", ",", 12, "Vibraphone", ",", 13, "Marimba", ",", 14, "Xylophone", ",", 15, "Tubular", "Bells", ",", 16, "Dulcimer", ",", 17, "Drawbar", "Organ", ",", 18, "Percussive", "Organ", ",", 19, "Rock", "Organ", ",", 20, "Church", "Organ", ",", 21, "Reed", "Organ", ",", 22, "Accordion", ",", 23, "Harmonica", ",", 24, "Tango", "Accordion", ",", 25, "Acoustic", "Guitar", "(nylon)", ",", 26, "Acoustic", "Guitar", "(steel)", ",", 27, "Electric", "Guitar", "(jazz)", ",", 28, "Electric", "Guitar", "(clean)", ",", 29, "Electric", "Guitar", "(muted)", ",", 30, "Overdriven", "Guitar", ",", 31, "Distortion", "Guitar", ",", 32, "Guitar", "harmonics", ",", 33, "Acoustic", "Bass", ",", 34, "Electric", "Bass", "(finger)", ",", 35, "Electric", "Bass", "(pick)", ",", 36, "Fretless", "Bass", ",", 37, "Slap", "Bass", 1, ",", 38, "Slap", "Bass", 2, ",", 39, "Synth", "Bass", 1, ",", 40, "Synth", "Bass", 2, ",", 41, "Violin", ",", 42, "Viola", ",", 43, "Cello", ",", 44, "Contrabass", ",", 45, "Tremolo", "Strings", ",", 46, "Pizzicato", "Strings", ",", 47, "Orchestral", "Harp", ",", 48, "Timpani", ",", 49, "String", "Ensemble", 1, ",", 50, "String", "Ensemble", 2, ",", 51, "SynthStrings", 1, ",", 52, "SynthStrings", 2, ",", 53, "Choir", "Aahs", ",", 54, "Voice", "Oohs", ",", 55, "Synth", "Voice", ",", 56, "Orchestra", "Hit", ",", 57, "Trumpet", ",", 58, "Trombone", ",", 59, "Tuba", ",", 60, "Muted", "Trumpet", ",", 61, "French", "Horn", ",", 62, "Brass", "Section", ",", 63, "SynthBrass", 1, ",", 64, "SynthBrass", 2, ",", 65, "Soprano", "Sax", ",", 66, "Alto", "Sax", ",", 67, "Tenor", "Sax", ",", 68, "Baritone", "Sax", ",", 69, "Oboe", ",", 70, "English", "Horn", ",", 71, "Bassoon", ",", 72, "Clarinet", ",", 73, "Piccolo", ",", 74, "Flute", ",", 75, "Recorder", ",", 76, "Pan", "Flute", ",", 77, "Blown", "Bottle", ",", 78, "Shakuhachi", ",", 79, "Whistle", ",", 80, "Ocarina", ",", 81, "Lead", 1, "(square)", ",", 82, "Lead", 2, "(sawtooth)", ",", 83, "Lead", 3, "(calliope)", ",", 84, "Lead", 4, "(chiff)", ",", 85, "Lead", 5, "(charang)", ",", 86, "Lead", 6, "(voice)", ",", 87, "Lead", 7, "(fifths)", ",", 88, "Lead", 8, "(bass", "+", "lead)", ",", 89, "Pad", 1, "(new", "age)", ",", 90, "Pad", 2, "(warm)", ",", 91, "Pad", 3, "(polysynth)", ",", 92, "Pad", 4, "(choir)", ",", 93, "Pad", 5, "(bowed)", ",", 94, "Pad", 6, "(metallic)", ",", 95, "Pad", 7, "(halo)", ",", 96, "Pad", 8, "(sweep)", ",", 97, "FX", 1, "(rain)", ",", 98, "FX", 2, "(soundtrack)", ",", 99, "FX", 3, "(crystal)", ",", 100, "FX", 4, "(atmosphere)", ",", 101, "FX", 5, "(brightness)", ",", 102, "FX", 6, "(goblins)", ",", 103, "FX", 7, "(echoes)", ",", 104, "FX", 8, "(sci-fi)", ",", 105, "Sitar", ",", 106, "Banjo", ",", 107, "Shamisen", ",", 108, "Koto", ",", 109, "Kalimba", ",", 110, "Bag", "pipe", ",", 111, "Fiddle", ",", 112, "Shanai", ",", 113, "Tinkle", "Bell", ",", 114, "Agogo", ",", 115, "Steel", "Drums", ",", 116, "Woodblock", ",", 117, "Taiko", "Drum", ",", 118, "Melodic", "Tom", ",", 119, "Synth", "Drum", ",", 120, "Reverse", "Cymbal", ",", 121, "Guitar", "Fret", "Noise", ",", 122, "Breath", "Noise", ",", 123, "Seashore", ",", 124, "Bird", "Tweet", ",", 125, "Telephone", "Ring", ",", 126, "Helicopter", ",", 127, "Applause", ",", 128, "Gunshot" ],
					"maxclass" : "umenu",
					"numinlets" : 1,
					"numoutlets" : 3,
					"outlettype" : [ "int", "", "" ],
					"parameter_enable" : 0,
					"patching_rect" : [ 570.0, 360.0, 100.0, 20.0 ],
					"presentation" : 1,
					"presentation_rect" : [ 45.0, 20.0, 165.0, 20.0 ],
					"prototypename" : "blackYahei11",
					"style" : "",
					"textcolor" : [ 1.0, 1.0, 1.0, 1.0 ],
					"varname" : "Program"
				}

			}
, 			{
				"box" : 				{
					"fontname" : "Lato",
					"fontsize" : 11.0,
					"id" : "obj-27",
					"linecount" : 2,
					"maxclass" : "message",
					"numinlets" : 2,
					"numoutlets" : 1,
					"outlettype" : [ "" ],
					"patching_rect" : [ 570.0, 390.0, 75.0, 35.0 ],
					"style" : "",
					"text" : "clearchecks, checkitem $1"
				}

			}
, 			{
				"box" : 				{
					"allowdrag" : 0,
					"bgcolor" : [ 0.0, 0.0, 0.0, 0.501961 ],
					"bgfillcolor_angle" : 270.0,
					"bgfillcolor_color" : [ 0.0, 0.0, 0.0, 0.501961 ],
					"bgfillcolor_color1" : [ 0.376471, 0.384314, 0.4, 1.0 ],
					"bgfillcolor_color2" : [ 0.290196, 0.309804, 0.301961, 1.0 ],
					"bgfillcolor_proportion" : 0.39,
					"bgfillcolor_type" : "color",
					"fontsize" : 10.0,
					"hint" : "Selected Controller",
					"id" : "obj-10",
					"items" : [ 0, "Bank", "Select", ",", 1, "Modulation", "Wheel", "or", "Lever", ",", 2, "Breath", "Controller", ",", 3, "Undefined", ",", 4, "Foot", "Controller", ",", 5, "Portamento", "Time", ",", 6, "Data", "Entry", "MSB", ",", 7, "Channel", "Volume", ",", 8, "Balance", ",", 9, "Undefined", ",", 10, "Pan", ",", 11, "Expression", "Controller", ",", 12, "Effect", "Control", 1, ",", 13, "Effect", "Control", 2, ",", 14, "Undefined", ",", 15, "Undefined", ",", 16, "General", "Purpose", "Controller", 1, ",", 17, "General", "Purpose", "Controller", 2, ",", 18, "General", "Purpose", "Controller", 3, ",", 19, "General", "Purpose", "Controller", 4, ",", 20, "Undefined", ",", 21, "Undefined", ",", 22, "Undefined", ",", 23, "Undefined", ",", 24, "Undefined", ",", 25, "Undefined", ",", 26, "Undefined", ",", 27, "Undefined", ",", 28, "Undefined", ",", 29, "Undefined", ",", 30, "Undefined", ",", 31, "Undefined", ",", 32, "LSB", "for", "Control", 0, "(Bank", "Select)", ",", 33, "LSB", "for", "Control", 1, "(Modulation", "Wheel", "or", "Lever)", ",", 34, "LSB", "for", "Control", 2, "(Breath", "Controller)", ",", 35, "LSB", "for", "Control", 3, "(Undefined)", ",", 36, "LSB", "for", "Control", 4, "(Foot", "Controller)", ",", 37, "LSB", "for", "Control", 5, "(Portamento", "Time)", ",", 38, "LSB", "for", "Control", 6, "(Data", "Entry)", ",", 39, "LSB", "for", "Control", 7, "(Channel", "Volume)", ",", 40, "LSB", "for", "Control", 8, "(Balance)", ",", 41, "LSB", "for", "Control", 9, "(Undefined)", ",", 42, "LSB", "for", "Control", 10, "(Pan)", ",", 43, "LSB", "for", "Control", 11, "(Expression", "Controller)", ",", 44, "LSB", "for", "Control", 12, "(Effect", "control", "1)", ",", 45, "LSB", "for", "Control", 13, "(Effect", "control", "2)", ",", 46, "LSB", "for", "Control", 14, "(Undefined)", ",", 47, "LSB", "for", "Control", 15, "(Undefined)", ",", 48, "LSB", "for", "Control", 16, "(General", "Purpose", "Controller", "1)", ",", 49, "LSB", "for", "Control", 17, "(General", "Purpose", "Controller", "2)", ",", 50, "LSB", "for", "Control", 18, "(General", "Purpose", "Controller", "3)", ",", 51, "LSB", "for", "Control", 19, "(General", "Purpose", "Controller", "4)", ",", 52, "LSB", "for", "Control", 20, "(Undefined)", ",", 53, "LSB", "for", "Control", 21, "(Undefined)", ",", 54, "LSB", "for", "Control", 22, "(Undefined)", ",", 55, "LSB", "for", "Control", 23, "(Undefined)", ",", 56, "LSB", "for", "Control", 24, "(Undefined)", ",", 57, "LSB", "for", "Control", 25, "(Undefined)", ",", 58, "LSB", "for", "Control", 26, "(Undefined)", ",", 59, "LSB", "for", "Control", 27, "(Undefined)", ",", 60, "LSB", "for", "Control", 28, "(Undefined)", ",", 61, "LSB", "for", "Control", 29, "(Undefined)", ",", 62, "LSB", "for", "Control", 30, "(Undefined)", ",", 63, "LSB", "for", "Control", 31, "(Undefined)", ",", 64, "Damper", "Pedal", "on/off", "(Sustain)", ",", 65, "Portamento", "On/Off", ",", 66, "Sostenuto", "On/Off", ",", 67, "Soft", "Pedal", "On/Off", ",", 68, "Legato", "Footswitch", ",", 69, "Hold", 2, ",", 70, "Sound", "Controller", 1, "(default:", "Sound", "Variation)", ",", 71, "Sound", "Controller", 2, "(default:", "Timbre/Harmonic", "Intens.)", ",", 72, "Sound", "Controller", 3, "(default:", "Release", "Time)", ",", 73, "Sound", "Controller", 4, "(default:", "Attack", "Time)", ",", 74, "Sound", "Controller", 5, "(default:", "Brightness)", ",", 75, "Sound", "Controller", 6, "(default:", "Decay", "Time)", ",", 76, "Sound", "Controller", 7, "(default:", "Vibrato", "Rate)", ",", 77, "Sound", "Controller", 8, "(default:", "Vibrato", "Depth)", ",", 78, "Sound", "Controller", 9, "(default:", "Vibrato", "Delay)", ",", 79, "Sound", "Controller", 10, "(default", "undefined)", ",", 80, "General", "Purpose", "Controller", 5, ",", 81, "General", "Purpose", "Controller", 6, ",", 82, "General", "Purpose", "Controller", 7, ",", 83, "General", "Purpose", "Controller", 8, ",", 84, "Portamento", "Control", ",", 85, "Undefined", ",", 86, "Undefined", ",", 87, "Undefined", ",", 88, "High", "Resolution", "Velocity", "Prefix", ",", 89, "Undefined", ",", 90, "Undefined", ",", 91, "Undefined", ",", 92, "Effects", 2, "Depth", ",", 93, "Effects", 3, "Depth", ",", 94, "Effects", 4, "Depth", ",", 95, "Effects", 5, "Depth", ",", 96, "Data", "Increment", "(Data", "Entry", "+1)", ",", 97, "Data", "Decrement", "(Data", "Entry", "-1)", ",", 98, "Non-Registered", "Parameter", "Number", "(NRPN)", "-", "LSB", ",", 99, "Non-Registered", "Parameter", "Number", "(NRPN)", "-", "MSB", ",", 100, "Registered", "Parameter", "Number", "(RPN)", "-", "LSB*", ",", 101, "Registered", "Parameter", "Number", "(RPN)", "-", "MSB*", ",", 102, "Undefined", ",", 103, "Undefined", ",", 104, "Undefined", ",", 105, "Undefined", ",", 106, "Undefined", ",", 107, "Undefined", ",", 108, "Undefined", ",", 109, "Undefined", ",", 110, "Undefined", ",", 111, "Undefined", ",", 112, "Undefined", ",", 113, "Undefined", ",", 114, "Undefined", ",", 115, "Undefined", ",", 116, "Undefined", ",", 117, "Undefined", ",", 118, "Undefined", ",", 119, "Undefined", ",", 120, "[Channel", "Mode", "Message]", "All", "Sound", "Off", ",", 121, "[Channel", "Mode", "Message]", "Reset", "All", "Controllers ", ",", 122, "[Channel", "Mode", "Message]", "Local", "Control", "On/Off", ",", 123, "[Channel", "Mode", "Message]", "All", "Notes", "Off", ",", 124, "[Channel", "Mode", "Message]", "Omni", "Mode", "Off", "(+", "all", "notes", "off)", ",", 125, "[Channel", "Mode", "Message]", "Omni", "Mode", "On", "(+", "all", "notes", "off)", ",", 126, "[Channel", "Mode", "Message]", "Mono", "Mode", "On", "(+", "poly", "off", "+", "all", "notes", "off)", ",", 127, "[Channel", "Mode", "Message]", "Poly", "Mode", "On", "(+", "mono", "off", "+all", "notes", "off)" ],
					"maxclass" : "umenu",
					"numinlets" : 1,
					"numoutlets" : 3,
					"outlettype" : [ "int", "", "" ],
					"parameter_enable" : 0,
					"patching_rect" : [ 465.0, 480.0, 100.0, 20.0 ],
					"presentation" : 1,
					"presentation_rect" : [ 45.0, 40.0, 165.0, 20.0 ],
					"prototypename" : "blackYahei11",
					"style" : "",
					"textcolor" : [ 1.0, 1.0, 1.0, 1.0 ],
					"varname" : "ControllerNo"
				}

			}
, 			{
				"box" : 				{
					"color" : [ 1.0, 1.0, 0.0, 1.0 ],
					"id" : "obj-39",
					"maxclass" : "newobj",
					"numinlets" : 0,
					"numoutlets" : 1,
					"outlettype" : [ "" ],
					"patching_rect" : [ 390.0, 45.0, 113.0, 22.0 ],
					"style" : "",
					"text" : "r __MIDI.Wrap.GM.In"
				}

			}
, 			{
				"box" : 				{
					"bgcolor" : [ 1.0, 1.0, 0.0, 0.25 ],
					"id" : "obj-123",
					"maxclass" : "comment",
					"numinlets" : 1,
					"numoutlets" : 0,
					"patching_rect" : [ 510.0, 15.0, 131.0, 20.0 ],
					"style" : "",
					"text" : "REN Shihong © 2017",
					"textcolor" : [ 1.0, 1.0, 1.0, 1.0 ]
				}

			}
, 			{
				"box" : 				{
					"id" : "obj-36",
					"maxclass" : "message",
					"numinlets" : 2,
					"numoutlets" : 1,
					"outlettype" : [ "" ],
					"patching_rect" : [ 90.0, 105.0, 98.0, 22.0 ],
					"style" : "",
					"text" : "text $1, texton $1"
				}

			}
, 			{
				"box" : 				{
					"id" : "obj-37",
					"maxclass" : "newobj",
					"numinlets" : 1,
					"numoutlets" : 1,
					"outlettype" : [ "" ],
					"patching_rect" : [ 90.0, 75.0, 55.0, 22.0 ],
					"style" : "",
					"text" : "tosymbol"
				}

			}
, 			{
				"box" : 				{
					"id" : "obj-17",
					"maxclass" : "message",
					"numinlets" : 2,
					"numoutlets" : 1,
					"outlettype" : [ "" ],
					"patching_rect" : [ 90.0, 45.0, 100.0, 22.0 ],
					"style" : "",
					"text" : "MIDI.Wrap.GM $1"
				}

			}
, 			{
				"box" : 				{
					"id" : "obj-9",
					"maxclass" : "newobj",
					"numinlets" : 1,
					"numoutlets" : 4,
					"outlettype" : [ "", "", "", "" ],
					"patching_rect" : [ 75.0, 690.0, 56.0, 22.0 ],
					"restore" : 					{
						"Bend" : [ 64.0 ],
						"Channel" : [ 1.0 ],
						"ContollerVal" : [ 64.0 ],
						"ControllerNo" : [ 10 ],
						"Program" : [ 0 ],
						"Reset" : [ -1 ]
					}
,
					"style" : "",
					"text" : "autopattr",
					"varname" : "u064013221"
				}

			}
, 			{
				"box" : 				{
					"comment" : "l [Parameters]",
					"id" : "obj-32",
					"index" : 0,
					"maxclass" : "inlet",
					"numinlets" : 0,
					"numoutlets" : 1,
					"outlettype" : [ "" ],
					"patching_rect" : [ 225.0, 75.0, 25.0, 25.0 ],
					"style" : ""
				}

			}
, 			{
				"box" : 				{
					"id" : "obj-8",
					"maxclass" : "newobj",
					"numinlets" : 2,
					"numoutlets" : 2,
					"outlettype" : [ "bang", "" ],
					"patching_rect" : [ 195.0, 45.0, 55.0, 22.0 ],
					"style" : "",
					"text" : "sel done"
				}

			}
, 			{
				"box" : 				{
					"id" : "obj-6",
					"maxclass" : "newobj",
					"numinlets" : 1,
					"numoutlets" : 2,
					"outlettype" : [ "", "" ],
					"patching_rect" : [ 90.0, 15.0, 220.0, 22.0 ],
					"style" : "",
					"text" : "patcherargs @pgm 1 @bend 64 @channel 1"
				}

			}
, 			{
				"box" : 				{
					"id" : "obj-4",
					"maxclass" : "newobj",
					"numinlets" : 9,
					"numoutlets" : 9,
					"outlettype" : [ "", "", "", "", "", "", "", "", "" ],
					"patching_rect" : [ 255.0, 75.0, 859.0, 22.0 ],
					"style" : "",
					"text" : "route note polyaftertouch ctl pgm aftertouch bend channel reset"
				}

			}
, 			{
				"box" : 				{
					"color" : [ 1.0, 1.0, 0.0, 1.0 ],
					"id" : "obj-1",
					"maxclass" : "newobj",
					"numinlets" : 0,
					"numoutlets" : 1,
					"outlettype" : [ "" ],
					"patching_rect" : [ 255.0, 45.0, 120.0, 22.0 ],
					"style" : "",
					"text" : "r #1_MIDI.Wrap.GM.In"
				}

			}
, 			{
				"box" : 				{
					"id" : "obj-71",
					"maxclass" : "newobj",
					"numinlets" : 1,
					"numoutlets" : 1,
					"outlettype" : [ "int" ],
					"patching_rect" : [ 15.0, 45.0, 24.0, 22.0 ],
					"style" : "",
					"text" : "t 1"
				}

			}
, 			{
				"box" : 				{
					"color" : [ 0.0, 0.0, 0.0, 1.0 ],
					"id" : "obj-70",
					"maxclass" : "newobj",
					"numinlets" : 1,
					"numoutlets" : 1,
					"outlettype" : [ "bang" ],
					"patching_rect" : [ 15.0, 15.0, 54.0, 22.0 ],
					"style" : "",
					"text" : "loadbang"
				}

			}
, 			{
				"box" : 				{
					"align" : 0,
					"bgcolor" : [ 1.0, 0.0, 0.0, 0.5 ],
					"bgoncolor" : [ 0.0, 1.0, 0.0, 0.5 ],
					"hint" : "Bypass",
					"id" : "obj-66",
					"maxclass" : "textbutton",
					"mode" : 1,
					"numinlets" : 1,
					"numoutlets" : 3,
					"outlettype" : [ "", "", "int" ],
					"parameter_enable" : 0,
					"patching_rect" : [ 15.0, 75.0, 60.0, 20.0 ],
					"presentation" : 1,
					"presentation_rect" : [ 0.0, 0.0, 255.0, 20.0 ],
					"style" : "",
					"text" : "MIDI.Wrap.GM #1",
					"textcolor" : [ 1.0, 1.0, 1.0, 1.0 ],
					"textjustification" : 0,
					"texton" : "MIDI.Wrap.GM #1",
					"textoncolor" : [ 1.0, 1.0, 1.0, 1.0 ],
					"textovercolor" : [ 1.0, 1.0, 0.0, 1.0 ],
					"usebgoncolor" : 1,
					"usetextovercolor" : 1
				}

			}
, 			{
				"box" : 				{
					"fontface" : 0,
					"fontname" : "Lato",
					"id" : "obj-3",
					"maxclass" : "live.dial",
					"numinlets" : 1,
					"numoutlets" : 2,
					"outlettype" : [ "", "float" ],
					"parameter_enable" : 1,
					"patching_rect" : [ 885.0, 330.0, 45.0, 49.0 ],
					"presentation" : 1,
					"presentation_rect" : [ 0.0, 20.0, 45.0, 49.0 ],
					"saved_attribute_attributes" : 					{
						"valueof" : 						{
							"parameter_longname" : "Channel",
							"parameter_shortname" : "Channel",
							"parameter_type" : 1,
							"parameter_mmin" : 1.0,
							"parameter_mmax" : 16.0,
							"parameter_initial_enable" : 1,
							"parameter_initial" : [ 1 ],
							"parameter_unitstyle" : 0
						}

					}
,
					"textcolor" : [ 1.0, 1.0, 1.0, 1.0 ],
					"varname" : "Channel"
				}

			}
, 			{
				"box" : 				{
					"id" : "obj-42",
					"maxclass" : "message",
					"numinlets" : 2,
					"numoutlets" : 1,
					"outlettype" : [ "" ],
					"patching_rect" : [ 330.0, 225.0, 34.0, 22.0 ],
					"style" : "",
					"text" : "clear"
				}

			}
, 			{
				"box" : 				{
					"id" : "obj-61",
					"maxclass" : "number",
					"numinlets" : 1,
					"numoutlets" : 2,
					"outlettype" : [ "", "bang" ],
					"parameter_enable" : 0,
					"patching_rect" : [ 602.5, 270.0, 50.0, 22.0 ],
					"style" : ""
				}

			}
 ],
		"lines" : [ 			{
				"patchline" : 				{
					"destination" : [ "obj-4", 0 ],
					"source" : [ "obj-1", 0 ]
				}

			}
, 			{
				"patchline" : 				{
					"destination" : [ "obj-27", 0 ],
					"order" : 0,
					"source" : [ "obj-10", 0 ]
				}

			}
, 			{
				"patchline" : 				{
					"destination" : [ "obj-43", 1 ],
					"order" : 1,
					"source" : [ "obj-10", 0 ]
				}

			}
, 			{
				"patchline" : 				{
					"destination" : [ "obj-50", 0 ],
					"source" : [ "obj-11", 0 ]
				}

			}
, 			{
				"patchline" : 				{
					"destination" : [ "obj-26", 0 ],
					"source" : [ "obj-12", 0 ]
				}

			}
, 			{
				"patchline" : 				{
					"destination" : [ "obj-5", 0 ],
					"source" : [ "obj-14", 0 ]
				}

			}
, 			{
				"patchline" : 				{
					"destination" : [ "obj-23", 0 ],
					"source" : [ "obj-15", 0 ]
				}

			}
, 			{
				"patchline" : 				{
					"destination" : [ "obj-25", 0 ],
					"source" : [ "obj-15", 1 ]
				}

			}
, 			{
				"patchline" : 				{
					"destination" : [ "obj-11", 0 ],
					"midpoints" : [ 474.5, 415.0, 447.5, 415.0, 447.5, 293.0, 474.5, 293.0 ],
					"order" : 1,
					"source" : [ "obj-16", 0 ]
				}

			}
, 			{
				"patchline" : 				{
					"destination" : [ "obj-15", 0 ],
					"order" : 0,
					"source" : [ "obj-16", 0 ]
				}

			}
, 			{
				"patchline" : 				{
					"destination" : [ "obj-37", 0 ],
					"source" : [ "obj-17", 0 ]
				}

			}
, 			{
				"patchline" : 				{
					"destination" : [ "obj-7", 0 ],
					"source" : [ "obj-18", 0 ]
				}

			}
, 			{
				"patchline" : 				{
					"destination" : [ "obj-18", 0 ],
					"source" : [ "obj-19", 0 ]
				}

			}
, 			{
				"patchline" : 				{
					"destination" : [ "obj-5", 0 ],
					"source" : [ "obj-19", 1 ]
				}

			}
, 			{
				"patchline" : 				{
					"destination" : [ "obj-24", 0 ],
					"source" : [ "obj-2", 0 ]
				}

			}
, 			{
				"patchline" : 				{
					"destination" : [ "obj-4", 0 ],
					"source" : [ "obj-20", 0 ]
				}

			}
, 			{
				"patchline" : 				{
					"destination" : [ "obj-16", 1 ],
					"source" : [ "obj-21", 1 ]
				}

			}
, 			{
				"patchline" : 				{
					"destination" : [ "obj-5", 2 ],
					"source" : [ "obj-21", 2 ]
				}

			}
, 			{
				"patchline" : 				{
					"destination" : [ "obj-51", 0 ],
					"source" : [ "obj-21", 0 ]
				}

			}
, 			{
				"patchline" : 				{
					"destination" : [ "obj-5", 2 ],
					"source" : [ "obj-22", 0 ]
				}

			}
, 			{
				"patchline" : 				{
					"destination" : [ "obj-10", 0 ],
					"source" : [ "obj-23", 0 ]
				}

			}
, 			{
				"patchline" : 				{
					"destination" : [ "obj-12", 0 ],
					"source" : [ "obj-24", 0 ]
				}

			}
, 			{
				"patchline" : 				{
					"destination" : [ "obj-48", 0 ],
					"source" : [ "obj-25", 0 ]
				}

			}
, 			{
				"patchline" : 				{
					"destination" : [ "obj-30", 0 ],
					"source" : [ "obj-26", 0 ]
				}

			}
, 			{
				"patchline" : 				{
					"destination" : [ "obj-5", 3 ],
					"source" : [ "obj-26", 1 ]
				}

			}
, 			{
				"patchline" : 				{
					"destination" : [ "obj-10", 0 ],
					"source" : [ "obj-27", 0 ]
				}

			}
, 			{
				"patchline" : 				{
					"destination" : [ "obj-29", 0 ],
					"order" : 0,
					"source" : [ "obj-28", 0 ]
				}

			}
, 			{
				"patchline" : 				{
					"destination" : [ "obj-5", 3 ],
					"order" : 1,
					"source" : [ "obj-28", 0 ]
				}

			}
, 			{
				"patchline" : 				{
					"destination" : [ "obj-28", 0 ],
					"source" : [ "obj-29", 0 ]
				}

			}
, 			{
				"patchline" : 				{
					"destination" : [ "obj-5", 6 ],
					"source" : [ "obj-3", 0 ]
				}

			}
, 			{
				"patchline" : 				{
					"destination" : [ "obj-28", 0 ],
					"source" : [ "obj-30", 0 ]
				}

			}
, 			{
				"patchline" : 				{
					"destination" : [ "obj-34", 0 ],
					"source" : [ "obj-31", 0 ]
				}

			}
, 			{
				"patchline" : 				{
					"destination" : [ "obj-5", 5 ],
					"source" : [ "obj-31", 1 ]
				}

			}
, 			{
				"patchline" : 				{
					"destination" : [ "obj-4", 0 ],
					"source" : [ "obj-32", 0 ]
				}

			}
, 			{
				"patchline" : 				{
					"destination" : [ "obj-22", 0 ],
					"order" : 0,
					"source" : [ "obj-33", 0 ]
				}

			}
, 			{
				"patchline" : 				{
					"destination" : [ "obj-42", 0 ],
					"order" : 2,
					"source" : [ "obj-33", 0 ]
				}

			}
, 			{
				"patchline" : 				{
					"destination" : [ "obj-49", 0 ],
					"order" : 1,
					"source" : [ "obj-33", 0 ]
				}

			}
, 			{
				"patchline" : 				{
					"destination" : [ "obj-6", 0 ],
					"order" : 3,
					"source" : [ "obj-33", 0 ]
				}

			}
, 			{
				"patchline" : 				{
					"destination" : [ "obj-55", 0 ],
					"source" : [ "obj-34", 0 ]
				}

			}
, 			{
				"patchline" : 				{
					"destination" : [ "obj-41", 0 ],
					"source" : [ "obj-35", 0 ]
				}

			}
, 			{
				"patchline" : 				{
					"destination" : [ "obj-5", 6 ],
					"source" : [ "obj-35", 1 ]
				}

			}
, 			{
				"patchline" : 				{
					"destination" : [ "obj-66", 0 ],
					"source" : [ "obj-36", 0 ]
				}

			}
, 			{
				"patchline" : 				{
					"destination" : [ "obj-36", 0 ],
					"source" : [ "obj-37", 0 ]
				}

			}
, 			{
				"patchline" : 				{
					"destination" : [ "obj-35", 0 ],
					"source" : [ "obj-38", 0 ]
				}

			}
, 			{
				"patchline" : 				{
					"destination" : [ "obj-4", 0 ],
					"source" : [ "obj-39", 0 ]
				}

			}
, 			{
				"patchline" : 				{
					"destination" : [ "obj-19", 0 ],
					"source" : [ "obj-4", 0 ]
				}

			}
, 			{
				"patchline" : 				{
					"destination" : [ "obj-2", 0 ],
					"source" : [ "obj-4", 3 ]
				}

			}
, 			{
				"patchline" : 				{
					"destination" : [ "obj-33", 0 ],
					"source" : [ "obj-4", 7 ]
				}

			}
, 			{
				"patchline" : 				{
					"destination" : [ "obj-40", 0 ],
					"source" : [ "obj-4", 6 ]
				}

			}
, 			{
				"patchline" : 				{
					"destination" : [ "obj-5", 4 ],
					"source" : [ "obj-4", 4 ]
				}

			}
, 			{
				"patchline" : 				{
					"destination" : [ "obj-5", 1 ],
					"source" : [ "obj-4", 1 ]
				}

			}
, 			{
				"patchline" : 				{
					"destination" : [ "obj-53", 0 ],
					"source" : [ "obj-4", 5 ]
				}

			}
, 			{
				"patchline" : 				{
					"destination" : [ "obj-56", 0 ],
					"source" : [ "obj-4", 2 ]
				}

			}
, 			{
				"patchline" : 				{
					"destination" : [ "obj-65", 1 ],
					"midpoints" : [ 1104.5, 659.0, 36.5, 659.0 ],
					"source" : [ "obj-4", 8 ]
				}

			}
, 			{
				"patchline" : 				{
					"destination" : [ "obj-38", 0 ],
					"source" : [ "obj-40", 0 ]
				}

			}
, 			{
				"patchline" : 				{
					"destination" : [ "obj-3", 0 ],
					"source" : [ "obj-41", 0 ]
				}

			}
, 			{
				"patchline" : 				{
					"destination" : [ "obj-7", 0 ],
					"source" : [ "obj-42", 0 ]
				}

			}
, 			{
				"patchline" : 				{
					"destination" : [ "obj-47", 0 ],
					"source" : [ "obj-43", 0 ]
				}

			}
, 			{
				"patchline" : 				{
					"destination" : [ "obj-5", 2 ],
					"source" : [ "obj-47", 0 ]
				}

			}
, 			{
				"patchline" : 				{
					"destination" : [ "obj-43", 0 ],
					"source" : [ "obj-48", 0 ]
				}

			}
, 			{
				"patchline" : 				{
					"destination" : [ "obj-11", 0 ],
					"source" : [ "obj-49", 0 ]
				}

			}
, 			{
				"patchline" : 				{
					"destination" : [ "obj-65", 1 ],
					"source" : [ "obj-5", 0 ]
				}

			}
, 			{
				"patchline" : 				{
					"destination" : [ "obj-54", 0 ],
					"source" : [ "obj-50", 0 ]
				}

			}
, 			{
				"patchline" : 				{
					"destination" : [ "obj-11", 0 ],
					"source" : [ "obj-51", 0 ]
				}

			}
, 			{
				"patchline" : 				{
					"destination" : [ "obj-50", 1 ],
					"source" : [ "obj-51", 1 ]
				}

			}
, 			{
				"patchline" : 				{
					"destination" : [ "obj-31", 0 ],
					"source" : [ "obj-52", 0 ]
				}

			}
, 			{
				"patchline" : 				{
					"destination" : [ "obj-52", 0 ],
					"source" : [ "obj-53", 0 ]
				}

			}
, 			{
				"patchline" : 				{
					"destination" : [ "obj-16", 0 ],
					"source" : [ "obj-54", 0 ]
				}

			}
, 			{
				"patchline" : 				{
					"destination" : [ "obj-5", 5 ],
					"source" : [ "obj-55", 0 ]
				}

			}
, 			{
				"patchline" : 				{
					"destination" : [ "obj-21", 0 ],
					"source" : [ "obj-56", 1 ]
				}

			}
, 			{
				"patchline" : 				{
					"destination" : [ "obj-57", 0 ],
					"source" : [ "obj-56", 0 ]
				}

			}
, 			{
				"patchline" : 				{
					"destination" : [ "obj-60", 0 ],
					"source" : [ "obj-57", 0 ]
				}

			}
, 			{
				"patchline" : 				{
					"destination" : [ "obj-17", 0 ],
					"source" : [ "obj-6", 0 ]
				}

			}
, 			{
				"patchline" : 				{
					"destination" : [ "obj-8", 0 ],
					"source" : [ "obj-6", 1 ]
				}

			}
, 			{
				"patchline" : 				{
					"destination" : [ "obj-21", 0 ],
					"source" : [ "obj-60", 0 ]
				}

			}
, 			{
				"patchline" : 				{
					"destination" : [ "obj-11", 0 ],
					"source" : [ "obj-61", 0 ]
				}

			}
, 			{
				"patchline" : 				{
					"destination" : [ "obj-13", 0 ],
					"source" : [ "obj-65", 0 ]
				}

			}
, 			{
				"patchline" : 				{
					"destination" : [ "obj-57", 1 ],
					"order" : 0,
					"source" : [ "obj-66", 0 ]
				}

			}
, 			{
				"patchline" : 				{
					"destination" : [ "obj-65", 0 ],
					"order" : 1,
					"source" : [ "obj-66", 0 ]
				}

			}
, 			{
				"patchline" : 				{
					"destination" : [ "obj-14", 1 ],
					"source" : [ "obj-7", 1 ]
				}

			}
, 			{
				"patchline" : 				{
					"destination" : [ "obj-14", 0 ],
					"source" : [ "obj-7", 0 ]
				}

			}
, 			{
				"patchline" : 				{
					"destination" : [ "obj-71", 0 ],
					"source" : [ "obj-70", 0 ]
				}

			}
, 			{
				"patchline" : 				{
					"destination" : [ "obj-66", 0 ],
					"source" : [ "obj-71", 0 ]
				}

			}
, 			{
				"patchline" : 				{
					"destination" : [ "obj-4", 0 ],
					"source" : [ "obj-8", 1 ]
				}

			}
 ],
		"parameters" : 		{
			"obj-55" : [ "Bend", "Bend", 0 ],
			"obj-3" : [ "Channel", "Channel", 0 ],
			"obj-48" : [ "Control", "Control", 0 ]
		}
,
		"dependency_cache" : [  ],
		"autosave" : 0,
		"bgfillcolor_type" : "gradient",
		"bgfillcolor_color1" : [ 0.376471, 0.384314, 0.4, 1.0 ],
		"bgfillcolor_color2" : [ 0.290196, 0.309804, 0.301961, 1.0 ],
		"bgfillcolor_color" : [ 0.290196, 0.309804, 0.301961, 1.0 ],
		"bgfillcolor_angle" : 270.0,
		"bgfillcolor_proportion" : 0.39
	}

}
